<svg width="571" height="667" viewBox="0 0 571 667" fill="none" xmlns="http://www.w3.org/2000/svg">
<g clip-path="url(#clip0_2_13364)">
<path d="M552.545 245.838H17.9661C13.2029 245.833 8.63632 243.936 5.26821 240.562C1.90011 237.189 0.00549999 232.616 0 227.846V17.993C0.00549999 13.2226 1.90011 8.64923 5.26821 5.27609C8.63632 1.90295 13.2029 0.00550821 17.9661 0H552.545C557.308 0.00550821 561.875 1.90295 565.243 5.27609C568.611 8.64923 570.505 13.2226 570.511 17.993V227.846C570.505 232.616 568.611 237.189 565.243 240.562C561.875 243.936 557.308 245.833 552.545 245.838Z" fill="#F2F2F2"/>
<path d="M427.869 234.363H102.822C78.6001 234.335 55.3779 224.687 38.2504 207.534C21.1228 190.38 11.4885 167.124 11.4612 142.865V102.983C11.4885 78.7247 21.1227 55.4678 38.2503 38.3145C55.3779 21.1612 78.6 11.5124 102.822 11.4849H467.692C491.914 11.5124 515.136 21.1612 532.263 38.3145C549.391 55.4678 559.025 78.7247 559.052 102.983C559.013 137.815 545.179 171.209 520.586 195.839C495.993 220.469 462.649 234.323 427.869 234.363Z" fill="white"/>
<path d="M344.02 71.5587H129.16C127.931 71.5587 126.753 71.0698 125.884 70.1996C125.015 69.3294 124.527 68.1491 124.527 66.9183C124.527 65.6876 125.015 64.5073 125.884 63.6371C126.753 62.7669 127.931 62.278 129.16 62.278H344.02C345.249 62.278 346.428 62.7669 347.297 63.6371C348.166 64.5073 348.654 65.6876 348.654 66.9183C348.654 68.1491 348.166 69.3294 347.297 70.1996C346.428 71.0698 345.249 71.5587 344.02 71.5587Z" fill="#E6E6E6"/>
<path d="M452.786 121.069H129.16C127.931 121.069 126.753 120.58 125.884 119.709C125.015 118.839 124.527 117.659 124.527 116.428C124.527 115.198 125.015 114.017 125.884 113.147C126.753 112.277 127.931 111.788 129.16 111.788H452.786C454.015 111.788 455.193 112.277 456.062 113.147C456.931 114.017 457.419 115.198 457.419 116.428C457.419 117.659 456.931 118.839 456.062 119.709C455.193 120.58 454.015 121.069 452.786 121.069Z" fill="#E6E6E6"/>
<path d="M452.786 170.579H129.16C127.931 170.579 126.753 170.09 125.884 169.219C125.015 168.349 124.527 167.169 124.527 165.938C124.527 164.708 125.015 163.527 125.884 162.657C126.753 161.787 127.931 161.298 129.16 161.298H452.786C454.015 161.298 455.193 161.787 456.062 162.657C456.931 163.527 457.419 164.708 457.419 165.938C457.419 167.169 456.931 168.349 456.062 169.219C455.193 170.09 454.015 170.579 452.786 170.579Z" fill="#E6E6E6"/>
<path d="M452.786 170.579H129.16C127.931 170.579 126.753 170.09 125.884 169.219C125.015 168.349 124.527 167.169 124.527 165.938C124.527 164.708 125.015 163.527 125.884 162.657C126.753 161.787 127.931 161.298 129.16 161.298H452.786C454.015 161.298 455.193 161.787 456.062 162.657C456.931 163.527 457.419 164.708 457.419 165.938C457.419 167.169 456.931 168.349 456.062 169.219C455.193 170.09 454.015 170.579 452.786 170.579Z" fill="#E6E6E6"/>
<path d="M321.347 126.751C321.399 128.149 321.755 129.518 322.393 130.763C323.03 132.008 323.932 133.097 325.035 133.955C326.138 134.813 327.415 135.418 328.777 135.728C330.139 136.038 331.552 136.045 332.917 135.749L350.588 164.78L358.108 148.798L340.175 123.679C339.526 121.416 338.071 119.469 336.085 118.209C334.098 116.948 331.72 116.461 329.399 116.84C327.078 117.219 324.977 118.437 323.493 120.263C322.009 122.09 321.245 124.398 321.347 126.751Z" fill="#FFB6B6"/>
<path d="M453.95 209.954L393.055 176.873L373.848 158.826C373.848 158.826 365.498 156.587 368.571 153.868C371.644 151.149 362.886 148.526 362.886 148.526L352.575 138.838L337.923 149.221L342.164 155.804C342.164 155.804 341.872 166.701 347.833 164.605C353.794 162.508 352.304 171.547 352.304 171.547L387.885 226.784L453.95 209.954Z" fill="#3F3D56"/>
<path d="M274.195 178.787C307.045 178.787 333.675 152.117 333.675 119.218C333.675 86.3194 307.045 59.6495 274.195 59.6495C241.345 59.6495 214.715 86.3194 214.715 119.218C214.715 152.117 241.345 178.787 274.195 178.787Z" fill="#1E73BE"/>
<path d="M454.139 643.84H441.771L435.886 596.066H454.139V643.84Z" fill="#FFB6B6"/>
<path d="M460.667 665.3H451.798L450.214 656.914L446.16 665.3H422.637C421.509 665.3 420.411 664.939 419.503 664.27C418.595 663.601 417.924 662.659 417.588 661.581C417.253 660.502 417.27 659.345 417.638 658.278C418.005 657.21 418.704 656.288 419.632 655.647L438.417 642.654V634.176L458.175 635.357L460.667 665.3Z" fill="#2F2E41"/>
<path d="M355.224 643.84H342.857L336.971 596.066H355.224V643.84Z" fill="#FFB6B6"/>
<path d="M361.752 665.3H352.883L351.3 656.914L347.245 665.3H323.722C322.595 665.3 321.497 664.939 320.588 664.27C319.68 663.601 319.009 662.659 318.674 661.581C318.338 660.502 318.355 659.345 318.723 658.278C319.091 657.21 319.79 656.288 320.717 655.647L339.502 642.654V634.176L359.261 635.357L361.752 665.3Z" fill="#2F2E41"/>
<path d="M441.016 282.528H378.594V353.699H441.016V282.528Z" fill="#FFB6B6"/>
<path d="M380.035 317.633L369.471 330.136L351.225 368.607L305.249 478.162L295.526 501.331L303.378 542.29C303.378 542.29 304.649 571.145 304.649 575.869C304.649 585.486 312.681 590.816 312.681 590.816L318.574 621.553L375.714 619.148C375.714 619.148 373.72 585.267 361.752 576.721C349.785 568.175 344.283 523.634 344.283 523.634L337.78 503.872L401.163 428.627L401.572 454.929L401.77 467.66C401.77 467.66 392.488 550.462 403.307 566.532C414.127 582.601 403.528 580.711 403.528 580.711L404.044 613.859L471.747 614.34L456.811 518.905C456.811 518.905 449.226 512.908 453.284 506.879C457.342 500.851 449.351 493.467 449.351 493.467L452.935 418.964C452.935 418.964 448.967 406.095 453.635 404.422C458.302 402.75 454.248 391.683 454.248 391.683L454.941 377.263L441.016 332.54L380.035 317.633Z" fill="#2F2E41"/>
<path d="M441.977 282.528L448.699 262.331L453.501 255.599L455.421 236.363C455.421 184.428 443.854 193.076 443.854 193.076L437.175 174.81L406.444 173.848L386.757 192.603L370.432 198.373L364.039 231.641L375.713 267.14L378.594 286.375C373.099 296.536 373.564 291.73 378.114 299.359L432.373 314.267C451.58 320.999 451.58 303.687 447.729 299.359C443.877 295.031 441.977 282.528 441.977 282.528Z" fill="#3F3D56"/>
<path d="M417.84 167.392C433.574 167.392 446.328 154.618 446.328 138.861C446.328 123.103 433.574 110.33 417.84 110.33C402.106 110.33 389.351 123.103 389.351 138.861C389.351 154.618 402.106 167.392 417.84 167.392Z" fill="#FFB6B6"/>
<path d="M455.873 176.945C456.141 177.398 456.304 177.907 456.349 178.432C456.394 178.957 456.32 179.486 456.132 179.979C455.945 180.472 455.649 180.916 455.267 181.278C454.884 181.64 454.425 181.911 453.923 182.071C450.101 183.341 447.748 187.043 445.002 190.006C442.265 192.958 437.857 195.411 434.361 193.401C430.875 191.4 430.635 186.293 427.716 183.523C424.873 180.83 420.148 181.157 416.806 183.206L416.706 183.268C416.129 183.644 415.455 183.843 414.766 183.84C414.078 183.837 413.405 183.632 412.832 183.25C412.258 182.868 411.809 182.326 411.54 181.691C411.271 181.057 411.193 180.357 411.317 179.678C412.488 173.441 413.658 167.205 414.828 160.97C411.754 168.385 407.292 175.143 401.681 180.879C400.135 182.665 398.177 184.045 395.976 184.899C393.979 185.534 392.039 183.466 390.099 183.841C394.92 179.619 411.131 152.554 408.23 134.463C404.821 134.848 401.412 135.233 398.003 135.618C397.634 134.002 396.845 132.512 395.717 131.299C395.855 132.872 395.655 134.456 395.131 135.944C393.71 136.108 392.279 136.262 390.858 136.425C388.88 136.647 386.728 136.839 385.029 135.8C382.196 134.069 382.109 129.972 382.916 126.74C385.278 117.344 392.442 109.486 401.21 105.37C409.978 101.263 412.571 110.409 421.809 107.486C440.056 101.715 454.038 111.583 458.965 129.895C463.104 145.254 460.098 161.557 455.873 176.945Z" fill="#2F2E41"/>
<path d="M534.742 665.921H499.858L499.709 665.649C499.262 664.839 498.832 663.98 498.429 663.098C494.836 655.394 493.317 646.583 491.977 638.809L490.968 632.949C490.846 632.239 490.938 631.509 491.233 630.852C491.527 630.195 492.011 629.641 492.622 629.261C493.232 628.881 493.942 628.692 494.661 628.718C495.38 628.745 496.074 628.985 496.655 629.409C501.957 633.273 507.26 637.132 512.565 640.988C514.574 642.452 516.869 644.146 519.066 645.977C519.278 644.946 519.5 643.912 519.721 642.892C519.874 642.188 520.233 641.545 520.753 641.047C521.273 640.548 521.929 640.216 522.638 640.094C523.347 639.971 524.076 640.063 524.733 640.358C525.389 640.652 525.943 641.137 526.323 641.749L530.405 648.316C533.381 653.112 536.009 657.838 535.473 662.935C535.476 662.997 535.471 663.059 535.46 663.12C535.353 663.957 535.154 664.78 534.867 665.574L534.742 665.921Z" fill="#F0F0F0"/>
<path d="M569.755 666.677L238.27 667C237.939 666.998 237.622 666.866 237.389 666.631C237.155 666.396 237.024 666.078 237.024 665.747C237.024 665.415 237.155 665.097 237.389 664.863C237.622 664.628 237.939 664.495 238.27 664.493L569.755 664.17C570.086 664.171 570.402 664.304 570.636 664.539C570.869 664.774 571 665.092 571 665.423C571 665.754 570.869 666.072 570.636 666.307C570.402 666.542 570.086 666.675 569.755 666.677Z" fill="#CACACA"/>
<path d="M268.788 199.394L232.326 168.556C231.08 167.499 230.303 165.991 230.166 164.361C230.029 162.732 230.542 161.114 231.595 159.864L238.306 151.905C239.36 150.657 240.867 149.879 242.494 149.742C244.121 149.604 245.736 150.119 246.984 151.173L283.446 182.01C284.693 183.067 285.47 184.575 285.607 186.205C285.744 187.834 285.23 189.452 284.178 190.702L277.467 198.661C276.412 199.909 274.906 200.687 273.279 200.825C271.652 200.962 270.037 200.447 268.788 199.394Z" fill="#3F3D56"/>
<path d="M234.24 160.505C233.673 161.179 233.396 162.051 233.47 162.929C233.544 163.807 233.962 164.62 234.634 165.189L271.096 196.027C271.769 196.595 272.639 196.872 273.516 196.798C274.393 196.724 275.204 196.305 275.773 195.632L282.484 187.674C283.051 187 283.327 186.128 283.254 185.25C283.18 184.372 282.761 183.559 282.089 182.99L245.627 152.152C244.955 151.584 244.084 151.307 243.208 151.381C242.331 151.455 241.519 151.874 240.951 152.547L234.24 160.505Z" fill="white"/>
<path d="M255.645 172.493C255.519 172.671 255.353 172.816 255.16 172.918C254.968 173.02 254.754 173.076 254.537 173.081L248.808 173.212C248.624 173.217 248.441 173.184 248.269 173.118C248.097 173.051 247.941 172.951 247.807 172.824C247.674 172.697 247.567 172.544 247.493 172.376C247.419 172.207 247.378 172.025 247.374 171.841C247.37 171.657 247.402 171.473 247.469 171.301C247.535 171.129 247.635 170.972 247.762 170.839C247.889 170.706 248.041 170.599 248.21 170.524C248.378 170.45 248.559 170.409 248.744 170.405L252.491 170.319L248.8 160.565C248.67 160.217 248.682 159.831 248.835 159.493C248.988 159.154 249.269 158.89 249.616 158.758C249.963 158.626 250.348 158.638 250.687 158.79C251.025 158.942 251.29 159.223 251.422 159.57L255.816 171.179C255.895 171.389 255.923 171.615 255.897 171.838C255.872 172.062 255.793 172.275 255.667 172.461L255.645 172.493Z" fill="#1E73BE"/>
<path d="M256.38 174.945C257.762 175.148 259.082 175.652 260.248 176.422C261.415 177.191 262.398 178.208 263.13 179.399C263.861 180.591 264.323 181.928 264.483 183.318C264.642 184.708 264.495 186.115 264.053 187.442L290.948 208.19L274.266 213.94L251.284 193.355C249.108 192.463 247.334 190.802 246.299 188.688C245.263 186.574 245.039 184.152 245.667 181.883C246.295 179.614 247.732 177.654 249.707 176.375C251.682 175.096 254.056 174.587 256.38 174.945Z" fill="#FFB6B6"/>
<path d="M396.401 185.204L327.541 227.605C327.541 227.605 299.778 217.317 305.204 212.554C310.63 207.791 293.356 204.572 293.356 204.572L274.275 191.715L263.202 204.603C263.202 204.603 265.22 225.536 268.653 221.911C272.085 218.287 277.217 228.188 277.217 228.188C277.217 228.188 278.733 239.244 288.505 236.462C298.277 233.68 324.498 262.844 324.498 262.844L409.244 231.189L396.401 185.204Z" fill="#3F3D56"/>
<path d="M272.103 143.114C271.305 143.114 270.518 142.928 269.804 142.57C269.09 142.212 268.469 141.693 267.99 141.053L255.379 124.213C254.973 123.672 254.679 123.056 254.511 122.401C254.344 121.746 254.307 121.064 254.402 120.395C254.498 119.725 254.724 119.081 255.068 118.499C255.412 117.917 255.867 117.409 256.407 117.003C257.498 116.184 258.87 115.832 260.22 116.025C260.888 116.121 261.531 116.347 262.112 116.692C262.693 117.036 263.201 117.492 263.606 118.033L271.857 129.05L293.048 97.216C293.805 96.0795 294.981 95.2906 296.318 95.0228C297.656 94.7549 299.045 95.03 300.179 95.7877C301.314 96.5453 302.102 97.7234 302.369 99.0627C302.637 100.402 302.362 101.793 301.605 102.929L276.382 140.82C275.926 141.506 275.313 142.071 274.593 142.47C273.873 142.869 273.069 143.089 272.247 143.112C272.199 143.113 272.151 143.114 272.103 143.114Z" fill="white"/>
</g>
<defs>
<clipPath id="clip0_2_13364">
<rect width="571" height="667" fill="white"/>
</clipPath>
</defs>
</svg>
