<svg width="34" height="34" viewBox="0 0 34 34" fill="none" xmlns="http://www.w3.org/2000/svg">
<g clip-path="url(#clip0_2_13206)">
<path d="M32.5277 16.221C32.5277 24.3002 26.5986 31.0111 18.8452 32.1839V20.9121H22.6242L23.3409 16.221H18.8452V13.2238C18.8452 11.9207 19.4968 10.6828 21.5166 10.6828H23.5364V6.70836C23.5364 6.70836 21.712 6.38258 19.8877 6.38258C16.239 6.38258 13.8283 8.663 13.8283 12.7026V16.221H9.72355V20.9121H13.8283V32.1839C6.07487 31.0111 0.210938 24.3002 0.210938 16.221C0.210938 7.29475 7.44313 0.062561 16.3693 0.062561C25.2956 0.062561 32.5277 7.29475 32.5277 16.221Z" fill="#1877F2"/>
</g>
<defs>
<clipPath id="clip0_2_13206">
<rect width="33.3593" height="33.3593" fill="white" transform="translate(0.210938 0.062561)"/>
</clipPath>
</defs>
</svg>
