<svg width="33" height="33" viewBox="0 0 33 33" fill="none" xmlns="http://www.w3.org/2000/svg">
<g clip-path="url(#clip0_2_13211)">
<path d="M16.2947 13.7061V19.9349H24.9507C24.5706 21.9381 23.43 23.6343 21.7193 24.7748L26.9392 28.825C29.9805 26.0178 31.7352 21.8944 31.7352 16.9961C31.7352 15.8556 31.6328 14.7589 31.4427 13.7062L16.2947 13.7061Z" fill="#4285F4"/>
<path d="M7.28084 19.6919L6.10355 20.5931L1.93628 23.8391C4.58281 29.0882 10.0071 32.7145 16.2944 32.7145C20.6369 32.7145 24.2777 31.2816 26.9389 28.8252L21.719 24.7749C20.2861 25.7399 18.4583 26.3249 16.2944 26.3249C12.1126 26.3249 8.55961 23.5029 7.28742 19.7012L7.28084 19.6919Z" fill="#34A853"/>
<path d="M1.93618 9.42212C0.839608 11.5861 0.210938 14.0279 0.210938 16.6305C0.210938 19.2332 0.839608 21.6751 1.93618 23.839C1.93618 23.8535 7.28784 19.6864 7.28784 19.6864C6.96616 18.7214 6.77602 17.6979 6.77602 16.6304C6.77602 15.5629 6.96616 14.5394 7.28784 13.5744L1.93618 9.42212Z" fill="#FBBC05"/>
<path d="M16.2947 6.95096C18.6635 6.95096 20.769 7.76975 22.4505 9.34892L27.0563 4.74313C24.2635 2.1405 20.6374 0.546631 16.2947 0.546631C10.0074 0.546631 4.58281 4.1582 1.93628 9.42205L7.28777 13.5746C8.55979 9.77293 12.1129 6.95096 16.2947 6.95096Z" fill="#EA4335"/>
</g>
<defs>
<clipPath id="clip0_2_13211">
<rect width="32.1679" height="32.1679" fill="white" transform="translate(0.210938 0.546631)"/>
</clipPath>
</defs>
</svg>
