<svg width="623" height="607" viewBox="0 0 623 607" fill="none" xmlns="http://www.w3.org/2000/svg">
<g clip-path="url(#clip0_2_13334)">
<path d="M397.359 136.067H364.211V418.641C364.211 423.074 363.337 427.464 361.641 431.56C359.944 435.656 357.457 439.378 354.321 442.513C351.186 445.648 347.464 448.135 343.367 449.831C339.271 451.528 334.88 452.401 330.446 452.401H77.0132V452.724C77.0132 457.158 77.8865 461.548 79.5833 465.644C81.2802 469.74 83.7673 473.461 86.9026 476.596C90.038 479.731 93.7602 482.218 97.8567 483.915C101.953 485.611 106.344 486.485 110.778 486.485H397.359C401.793 486.485 406.184 485.611 410.28 483.915C414.377 482.218 418.099 479.731 421.234 476.596C424.37 473.461 426.857 469.74 428.554 465.644C430.25 461.548 431.124 457.158 431.124 452.724V169.828C431.124 160.874 427.566 152.287 421.234 145.956C414.902 139.624 406.314 136.067 397.359 136.067Z" fill="#F2F2F2"/>
<path d="M554.498 585.12C555.084 585.147 555.665 584.993 556.162 584.678C556.658 584.364 557.046 583.905 557.272 583.363C557.499 582.821 557.554 582.223 557.429 581.649C557.304 581.075 557.005 580.553 556.574 580.154L556.378 579.374C556.404 579.312 556.43 579.249 556.456 579.187C557.047 577.791 558.038 576.6 559.303 575.765C560.569 574.93 562.053 574.487 563.569 574.493C565.086 574.499 566.567 574.952 567.826 575.797C569.085 576.641 570.067 577.839 570.648 579.239C572.969 584.829 575.925 590.429 576.652 596.339C576.973 598.952 576.838 601.6 576.253 604.166C581.705 592.275 584.536 579.351 584.554 566.27C584.555 562.987 584.373 559.707 584.008 556.445C583.706 553.77 583.287 551.115 582.752 548.479C579.83 534.175 573.556 520.768 564.445 509.359C560.036 506.953 556.47 503.254 554.228 498.76C553.416 497.144 552.842 495.419 552.523 493.639C553.021 493.705 554.399 486.13 554.024 485.665C554.717 484.614 555.958 484.091 556.715 483.064C560.48 477.96 565.668 478.852 568.376 485.788C574.161 488.707 574.217 493.549 570.667 498.205C568.409 501.168 568.098 505.176 566.117 508.348C566.321 508.609 566.533 508.862 566.737 509.123C570.463 513.914 573.711 519.059 576.434 524.484C575.772 518.406 576.562 512.259 578.74 506.546C580.947 501.222 585.084 496.739 588.727 492.136C589.69 490.9 590.999 489.977 592.487 489.484C593.975 488.991 595.576 488.951 597.087 489.367C598.598 489.784 599.952 490.639 600.977 491.825C602.002 493.01 602.653 494.473 602.847 496.029C602.854 496.097 602.861 496.164 602.869 496.232C602.327 496.537 601.798 496.861 601.28 497.204C600.629 497.639 600.124 498.26 599.832 498.987C599.54 499.713 599.475 500.511 599.644 501.276C599.814 502.04 600.21 502.735 600.781 503.271C601.353 503.806 602.073 504.156 602.846 504.275L602.926 504.288C602.733 506.238 602.392 508.17 601.906 510.068C606.58 528.14 596.49 534.722 582.083 535.018C581.765 535.181 581.455 535.344 581.137 535.499C583.873 543.25 585.589 551.325 586.242 559.519C586.612 564.353 586.59 569.209 586.177 574.04L586.201 573.868C587.245 568.497 590.111 563.65 594.315 560.146C600.559 555.018 609.38 553.129 616.116 549.007C616.832 548.547 617.664 548.302 618.515 548.3C619.366 548.298 620.199 548.539 620.917 548.995C621.636 549.451 622.208 550.103 622.568 550.874C622.928 551.645 623.06 552.503 622.948 553.346L622.92 553.526C621.916 553.935 620.938 554.406 619.993 554.936C619.452 555.242 618.922 555.566 618.404 555.908C617.753 556.343 617.248 556.965 616.956 557.691C616.665 558.418 616.599 559.215 616.768 559.98C616.938 560.744 617.334 561.44 617.906 561.975C618.477 562.51 619.197 562.86 619.971 562.98L620.05 562.992C620.107 563 620.156 563.008 620.213 563.016C618.497 567.113 616.089 570.883 613.094 574.162C610.172 589.938 597.621 591.435 584.195 586.841H584.187C582.714 593.241 580.579 599.471 577.818 605.43H555.068C554.986 605.177 554.913 604.916 554.839 604.664C556.945 604.796 559.059 604.67 561.135 604.289C559.447 602.218 557.759 600.131 556.071 598.06C556.033 598.021 555.998 597.98 555.965 597.937C555.108 596.877 554.244 595.826 553.388 594.766L553.387 594.764C553.342 591.515 553.715 588.274 554.498 585.12Z" fill="#F2F2F2"/>
<path d="M303.917 97.6297C304.748 98.888 305.842 99.9508 307.124 100.745C308.406 101.539 309.845 102.045 311.341 102.228C312.838 102.411 314.357 102.267 315.792 101.806C317.228 101.344 318.546 100.577 319.655 99.5558L366.955 120.893L376.075 109.263L319.71 84.3307C317.853 82.591 315.422 81.593 312.878 81.5258C310.333 81.4586 307.853 82.327 305.906 83.9662C303.959 85.6055 302.682 87.9018 302.315 90.4201C301.949 92.9384 302.519 95.5036 303.917 97.6297Z" fill="#A0616A"/>
<path d="M506.908 110.935L511.6 137.515C511.818 138.755 511.775 140.027 511.474 141.25C511.172 142.472 510.617 143.618 509.846 144.614C509.075 145.61 508.105 146.433 506.997 147.031C505.889 147.63 504.668 147.99 503.412 148.089L423.699 154.356L329.999 112.427L341.191 91.1848L422.53 116.94L506.908 110.935Z" fill="#A5C7E5"/>
<path d="M320.346 91.8851H33.7647C15.117 91.8851 0 107 0 125.646V408.542C0 427.187 15.117 442.302 33.7647 442.302H320.346C338.994 442.302 354.111 427.187 354.111 408.542V125.646C354.111 107 338.994 91.8851 320.346 91.8851Z" fill="#F2F2F2"/>
<path d="M33.7649 98.8279C30.2428 98.8279 26.755 99.5215 23.501 100.869C20.2469 102.217 17.2902 104.192 14.7996 106.683C12.3091 109.173 10.3334 112.129 8.98557 115.383C7.63769 118.637 6.94397 122.124 6.94397 125.646V408.542C6.94397 415.654 9.76973 422.476 14.7996 427.505C19.8295 432.534 26.6516 435.36 33.7649 435.36H216.668C233.805 435.36 250.775 431.984 266.608 425.427C282.44 418.87 296.827 409.259 308.944 397.142C321.062 385.026 330.675 370.641 337.233 354.811C343.791 338.98 347.167 322.012 347.167 304.877V125.646C347.167 122.124 346.473 118.637 345.125 115.383C343.777 112.129 341.802 109.173 339.311 106.683C336.82 104.192 333.864 102.217 330.61 100.869C327.356 99.5215 323.868 98.8279 320.346 98.8279H33.7649Z" fill="white"/>
<path d="M257.168 184.682H96.316C94.84 184.682 93.4245 184.096 92.3808 183.052C91.3371 182.009 90.7508 180.593 90.7508 179.118C90.7508 177.642 91.3371 176.227 92.3808 175.183C93.4245 174.139 94.84 173.553 96.316 173.553H257.168C258.644 173.553 260.059 174.139 261.103 175.183C262.147 176.227 262.733 177.642 262.733 179.118C262.733 180.593 262.147 182.009 261.103 183.052C260.059 184.096 258.644 184.682 257.168 184.682Z" fill="#F2F2F2"/>
<path d="M257.168 303.343H96.316C94.84 303.343 93.4245 302.757 92.3808 301.714C91.3371 300.67 90.7508 299.255 90.7508 297.779C90.7508 296.303 91.3371 294.888 92.3808 293.844C93.4245 292.801 94.84 292.214 96.316 292.214H257.168C258.644 292.214 260.059 292.801 261.103 293.844C262.147 294.888 262.733 296.303 262.733 297.779C262.733 299.255 262.147 300.67 261.103 301.714C260.059 302.757 258.644 303.343 257.168 303.343Z" fill="#F2F2F2"/>
<path d="M322.487 244.052H30.9974C29.5215 244.052 28.1059 243.465 27.0623 242.422C26.0186 241.378 25.4323 239.963 25.4323 238.487C25.4323 237.011 26.0186 235.596 27.0623 234.552C28.1059 233.509 29.5215 232.923 30.9974 232.923H322.487C323.963 232.923 325.378 233.509 326.422 234.552C327.465 235.596 328.052 237.011 328.052 238.487C328.052 239.963 327.465 241.378 326.422 242.422C325.378 243.465 323.963 244.052 322.487 244.052Z" fill="#F2F2F2"/>
<path d="M496.837 228.091L467.799 289.946L579.503 278.634L556.185 219.254L496.837 228.091Z" fill="#A0616A"/>
<path d="M522.807 583.611L512.216 583.521L507.528 541.724L523.158 541.856L522.807 583.611Z" fill="#A0616A"/>
<path d="M488.883 600.45C488.874 601.705 489.362 602.913 490.243 603.808C491.123 604.703 492.322 605.213 493.577 605.225L514.634 605.401L518.321 597.93L519.675 605.439L527.62 605.511L525.614 578.728L522.849 578.544L511.574 577.767L507.937 577.524L507.873 585.102L490.958 596.573C490.324 597.003 489.804 597.581 489.443 598.256C489.081 598.931 488.889 599.684 488.883 600.45Z" fill="#2F2E41"/>
<path d="M405.602 583.659L395.504 580.461L403.305 539.132L418.208 543.849L405.602 583.659Z" fill="#A0616A"/>
<path d="M368.227 589.788C367.849 590.985 367.962 592.284 368.54 593.398C369.118 594.512 370.115 595.352 371.311 595.732L391.387 602.086L397.106 596.028L396.194 603.604L403.767 606.007L409.72 579.816L407.131 578.829L396.582 574.773L393.177 573.472L390.889 580.697L371.35 586.693C370.617 586.918 369.951 587.317 369.407 587.856C368.863 588.395 368.458 589.058 368.227 589.788Z" fill="#2F2E41"/>
<path d="M574.415 261.239L472.85 279.847C472.85 279.847 456.559 292.032 460.917 296.395C465.275 300.759 465.951 300.083 463.088 302.945C460.225 305.808 454.034 309.635 453.973 312.14C453.912 314.645 408.462 426.994 408.462 426.994C408.462 426.994 413.512 424.469 409.724 428.256C405.937 432.043 405.937 435.173 405.937 435.173L388.262 554.492L416.967 556.181L445.075 447.4L507.77 345.776C507.77 345.776 513.991 436.399 514.252 442.426C514.513 448.454 518.3 440.88 514.513 448.454C510.725 456.028 508.2 450.979 510.725 456.028C513.25 461.077 501.629 563.877 501.629 563.877H527.83L584.024 350.803C584.024 350.803 604.018 289.887 574.415 261.239Z" fill="#2F2E41"/>
<path d="M544.495 90.8067L503.811 86.58L493.27 100.263L480.991 106.802C475.795 109.57 471.505 113.775 468.636 118.915C465.767 124.056 464.439 129.914 464.812 135.789L479.162 219.254C479.162 219.254 467.041 246.545 475.375 253.338C483.709 260.13 468.932 276.953 486.738 268.486C504.543 260.019 581.426 269.748 581.426 269.748L565.013 223.041L577.274 177.145L578.623 138.662C578.875 131.471 576.741 124.398 572.553 118.547C568.365 112.695 562.358 108.394 555.47 106.312L553.755 105.794L544.495 90.8067Z" fill="#A5C7E5"/>
<path d="M600.506 59.6211C600.772 71.0871 596.487 82.1894 590.33 91.9411C588.501 86.2482 585.212 81.0669 581.783 76.1278C583.512 86.8126 581.67 97.7693 576.543 107.302C576.362 107.432 576.175 107.552 575.982 107.662C570.964 110.68 564.602 111.903 559.173 109.723C570.39 97.6336 571.817 77.6036 562.413 64.0437C559.751 60.196 556.308 56.7931 554.659 52.4143C552.055 45.4278 554.558 37.7355 556.137 30.4513C557.613 23.672 557.872 15.6045 553.323 10.6361C553.809 9.94174 554.47 9.38905 555.24 9.03464C556.01 8.68024 556.86 8.53685 557.704 8.61916C560.508 9.01528 562.55 11.4527 563.85 13.9631C565.15 16.4734 566.008 19.2557 567.82 21.424C571.175 25.4825 576.89 26.442 581.706 28.5809C593.368 33.775 600.226 46.8626 600.506 59.6211Z" fill="#2F2E41"/>
<path d="M300.037 605.498C300.036 605.695 300.075 605.891 300.15 606.073C300.225 606.256 300.336 606.422 300.476 606.561C300.615 606.701 300.781 606.812 300.964 606.887C301.146 606.962 301.342 607.001 301.539 607H621.321C621.719 607 622.101 606.842 622.383 606.56C622.665 606.278 622.823 605.896 622.823 605.498C622.823 605.099 622.665 604.717 622.383 604.436C622.101 604.154 621.719 603.996 621.321 603.996H301.539C301.342 603.995 301.146 604.033 300.964 604.109C300.781 604.184 300.615 604.295 300.476 604.434C300.336 604.574 300.225 604.74 300.15 604.922C300.075 605.105 300.036 605.3 300.037 605.498Z" fill="#CCCCCC"/>
<path d="M603.024 325.369C609.299 325.369 614.386 320.282 614.386 314.007C614.386 307.733 609.299 302.646 603.024 302.646C596.748 302.646 591.661 307.733 591.661 314.007C591.661 320.282 596.748 325.369 603.024 325.369Z" fill="#A5C7E5"/>
<path d="M502.336 53.0653C503.002 50.733 498.408 64.99 500.625 65.2474C510.721 66.4054 524.58 72.4341 531.611 75.2467C531.928 75.2099 532.245 75.1731 532.552 75.1272C533.307 75.0444 534.042 74.9249 534.769 74.7871C551.142 71.6896 557.438 46.5418 557.438 46.3121C557.438 45.1815 554.724 14.1309 550.45 13.6714C549.327 13.5496 548.198 13.4882 547.069 13.4876H536.461C534.266 13.0146 532.041 12.6922 529.802 12.5225H529.783C508.427 10.8956 491.589 23.9105 493.162 39.7472C493.172 39.7655 493.19 39.7839 493.2 39.8023C493.656 40.4825 494.057 41.1259 494.411 41.7417C494.755 42.3208 495.044 42.8722 495.295 43.3961C497.242 47.4403 492.238 52.5292 495.556 53.479C499.969 54.7423 483.951 96.2646 501.416 96.2646C492.921 98.6798 500.497 59.4993 502.336 53.0653Z" fill="#2F2E41"/>
<path d="M521.4 77.4289C535.271 77.4289 546.516 66.1856 546.516 52.3162C546.516 38.4469 535.271 27.2036 521.4 27.2036C507.529 27.2036 496.284 38.4469 496.284 52.3162C496.284 66.1856 507.529 77.4289 521.4 77.4289Z" fill="#A0616A"/>
<path d="M493.163 41.1166C493.582 41.3372 493.991 41.5394 494.411 41.7416C494.848 41.953 495.286 42.1644 495.724 42.3574C504.134 46.1718 510.979 46.5946 515.133 41.1166C515.244 38.2342 515.892 35.3977 517.042 32.7525C516.839 35.7086 517.618 38.649 519.259 41.1166H527.622C536.237 46.8336 540.661 47.431 534.682 66.1997C533.015 71.4296 526.386 101.862 528.994 106.375C529.748 106.292 537.774 72.9593 538.5 72.8215C554.873 69.724 565.277 42.7526 563.945 41.2269C563.951 36.8881 562.954 32.6066 561.03 28.7175C558.596 23.7903 554.801 19.6631 550.096 16.824C547.291 15.464 544.366 14.3656 541.36 13.5426C541.285 13.5242 541.22 13.5058 541.145 13.4875C540.223 13.2393 539.283 13.0095 538.342 12.8165C536.399 12.4062 534.434 12.1086 532.456 11.925C532.316 11.9158 532.177 11.9066 532.046 11.9066C531.257 11.9084 530.482 12.121 529.802 12.5224C529.792 12.5224 529.792 12.5316 529.783 12.5316C529.297 12.8155 528.873 13.1936 528.535 13.6437C527.94 14.401 527.619 15.337 527.622 16.3H518.309C517.964 16.3 517.62 16.3092 517.275 16.3275C511.059 16.5399 505.146 19.064 500.693 23.4057C496.241 27.7475 493.568 33.5944 493.2 39.8023C493.172 40.2434 493.163 40.6754 493.163 41.1166Z" fill="#2F2E41"/>
<path d="M548.077 33.0888C557.215 33.0888 564.623 25.6816 564.623 16.5444C564.623 7.40717 557.215 0 548.077 0C538.939 0 531.531 7.40717 531.531 16.5444C531.531 25.6816 538.939 33.0888 548.077 33.0888Z" fill="#2F2E41"/>
<path d="M603.151 318.692C603.959 317.419 604.48 315.985 604.679 314.491C604.878 312.997 604.75 311.477 604.304 310.037C603.857 308.596 603.104 307.27 602.095 306.15C601.085 305.03 599.845 304.142 598.459 303.549L598.541 251.664L584.193 248.113L584.547 309.738C583.721 312.145 583.807 314.771 584.788 317.119C585.769 319.467 587.578 321.374 589.871 322.478C592.164 323.581 594.783 323.806 597.231 323.108C599.678 322.41 601.785 320.839 603.151 318.692Z" fill="#A0616A"/>
<path d="M532.102 128.1L554.429 112.928C555.47 112.221 556.648 111.739 557.887 111.513C559.126 111.287 560.399 111.323 561.623 111.618C562.848 111.913 563.997 112.461 564.997 113.227C565.997 113.992 566.826 114.958 567.43 116.063L605.815 186.197L605.962 288.84L581.997 287.338L572.159 202.597L532.102 128.1Z" fill="#A5C7E5"/>
<path d="M360.631 360.878H122.016C116.826 360.878 111.849 362.94 108.179 366.609C104.509 370.279 102.447 375.255 102.447 380.445C102.447 385.634 104.509 390.611 108.179 394.28C111.849 397.95 116.826 400.011 122.016 400.011H360.631C365.821 400.011 370.798 397.95 374.468 394.28C378.138 390.611 380.2 385.634 380.2 380.445C380.2 375.255 378.138 370.279 374.468 366.609C370.798 362.94 365.821 360.878 360.631 360.878Z" fill="white"/>
<path d="M360.631 401.274H122.016C116.491 401.274 111.193 399.079 107.286 395.173C103.379 391.267 101.185 385.969 101.185 380.445C101.185 374.921 103.379 369.623 107.286 365.717C111.193 361.81 116.491 359.616 122.016 359.616H360.631C366.155 359.616 371.454 361.81 375.361 365.717C379.267 369.623 381.462 374.921 381.462 380.445C381.462 385.969 379.267 391.267 375.361 395.173C371.454 399.079 366.155 401.274 360.631 401.274ZM122.016 362.141C117.161 362.141 112.505 364.069 109.071 367.502C105.638 370.935 103.71 375.59 103.71 380.445C103.71 385.299 105.638 389.955 109.071 393.388C112.505 396.82 117.161 398.749 122.016 398.749H360.631C365.486 398.749 370.142 396.82 373.575 393.388C377.008 389.955 378.937 385.299 378.937 380.445C378.937 375.59 377.008 370.935 373.575 367.502C370.142 364.069 365.486 362.141 360.631 362.141H122.016Z" fill="#A5C7E5"/>
<path d="M374.701 446.267H269.399C267.923 446.267 266.508 445.681 265.464 444.637C264.42 443.594 263.834 442.179 263.834 440.703C263.834 439.227 264.42 437.812 265.464 436.768C266.508 435.725 267.923 435.138 269.399 435.138H374.701C376.177 435.138 377.592 435.725 378.636 436.768C379.68 437.812 380.266 439.227 380.266 440.703C380.266 442.179 379.68 443.594 378.636 444.637C377.592 445.681 376.177 446.267 374.701 446.267Z" fill="#A5C7E5"/>
</g>
<defs>
<clipPath id="clip0_2_13334">
<rect width="623" height="607" fill="white"/>
</clipPath>
</defs>
</svg>
